<?xml version="1.0" encoding="UTF-8"?>
<svg xmlns="http://www.w3.org/2000/svg" xmlns:xlink="http://www.w3.org/1999/xlink" viewBox="0 0 707.59 260.36">
  <defs>
    <style>
      .cls-1 {
        fill: url(#linear-gradient-15);
      }

      .cls-2 {
        fill: url(#linear-gradient-13);
      }

      .cls-3, .cls-4 {
        fill: #9edcf8;
      }

      .cls-5 {
        fill: url(#linear-gradient-2);
      }

      .cls-6 {
        fill: url(#linear-gradient-25);
      }

      .cls-7 {
        fill: url(#Degradado_sin_nombre_28);
      }

      .cls-8 {
        fill: url(#linear-gradient-10);
      }

      .cls-9 {
        fill: url(#linear-gradient-12);
      }

      .cls-10, .cls-11 {
        fill: #48b2e5;
      }

      .cls-10, .cls-12 {
        fill-rule: evenodd;
      }

      .cls-13 {
        fill: url(#Degradado_sin_nombre_28-2);
      }

      .cls-14 {
        fill: url(#Degradado_sin_nombre_28-5);
      }

      .cls-15 {
        fill: url(#linear-gradient-4);
      }

      .cls-16 {
        fill: url(#Degradado_sin_nombre_28-8);
      }

      .cls-17 {
        fill: #def2fc;
      }

      .cls-17, .cls-4, .cls-18, .cls-19, .cls-20 {
        mix-blend-mode: multiply;
      }

      .cls-21 {
        fill: url(#linear-gradient-3);
      }

      .cls-22 {
        fill: url(#linear-gradient-5);
      }

      .cls-23 {
        fill: url(#linear-gradient-22);
      }

      .cls-24 {
        fill: url(#linear-gradient-24);
      }

      .cls-25 {
        fill: url(#Degradado_sin_nombre_2);
      }

      .cls-26 {
        isolation: isolate;
      }

      .cls-27 {
        fill: url(#linear-gradient-8);
      }

      .cls-28 {
        fill: url(#Degradado_sin_nombre_28-3);
      }

      .cls-29, .cls-12 {
        fill: #9fa2d0;
      }

      .cls-18 {
        fill: url(#Degradado_sin_nombre_28-6);
      }

      .cls-30 {
        fill: url(#linear-gradient-14);
      }

      .cls-31 {
        fill: url(#linear-gradient-20);
      }

      .cls-32 {
        fill: url(#linear-gradient-17);
      }

      .cls-33 {
        fill: url(#linear-gradient-7);
      }

      .cls-34 {
        fill: url(#linear-gradient-9);
      }

      .cls-35 {
        fill: url(#linear-gradient-11);
      }

      .cls-36 {
        fill: url(#linear-gradient-19);
      }

      .cls-37 {
        fill: url(#linear-gradient-6);
      }

      .cls-38 {
        fill: url(#linear-gradient-21);
      }

      .cls-39 {
        fill: #f1f4ee;
      }

      .cls-40 {
        fill: #006e8c;
        opacity: .15;
      }

      .cls-20 {
        fill: url(#Degradado_sin_nombre_28-4);
      }

      .cls-41 {
        fill: url(#linear-gradient-16);
      }

      .cls-42 {
        fill: url(#linear-gradient);
      }

      .cls-43 {
        fill: url(#linear-gradient-23);
      }

      .cls-44 {
        fill: url(#linear-gradient-18);
      }

      .cls-45 {
        fill: url(#Degradado_sin_nombre_28-7);
      }
    </style>
    <linearGradient id="linear-gradient" x1="301.29" y1="162.26" x2="301.29" y2="96.67" gradientUnits="userSpaceOnUse">
      <stop offset="0" stop-color="#6c6b69"/>
      <stop offset="1" stop-color="#b1b0ae"/>
    </linearGradient>
    <linearGradient id="linear-gradient-2" x1="279.19" x2="279.19" xlink:href="#linear-gradient"/>
    <linearGradient id="linear-gradient-3" x1="256.54" y1="156.58" x2="256.54" y2="144.13" xlink:href="#linear-gradient"/>
    <linearGradient id="linear-gradient-4" x1="250.12" y1="159.07" x2="250.12" y2="96.73" xlink:href="#linear-gradient"/>
    <linearGradient id="linear-gradient-5" x1="257.7" y1="114.86" x2="257.7" y2="105.02" xlink:href="#linear-gradient"/>
    <linearGradient id="linear-gradient-6" x1="388.77" y1="156.58" x2="388.77" y2="105.02" xlink:href="#linear-gradient"/>
    <linearGradient id="linear-gradient-7" x1="385.18" y1="159.06" x2="385.18" y2="96.73" xlink:href="#linear-gradient"/>
    <linearGradient id="linear-gradient-8" x1="322.48" y1="132.5" x2="322.48" xlink:href="#linear-gradient"/>
    <linearGradient id="linear-gradient-9" x1="313.71" x2="313.71" y2="127.28" xlink:href="#linear-gradient"/>
    <linearGradient id="linear-gradient-10" x1="357.05" y1="156.58" x2="357.05" y2="144.13" xlink:href="#linear-gradient"/>
    <linearGradient id="linear-gradient-11" x1="350.62" y1="159.07" x2="350.62" y2="96.73" xlink:href="#linear-gradient"/>
    <linearGradient id="linear-gradient-12" x1="358.2" y1="114.86" x2="358.2" y2="105.02" xlink:href="#linear-gradient"/>
    <linearGradient id="linear-gradient-13" x1="662.98" y1="156.58" x2="662.98" y2="105.02" xlink:href="#linear-gradient"/>
    <linearGradient id="linear-gradient-14" x1="659.39" y1="159.06" x2="659.39" y2="96.73" xlink:href="#linear-gradient"/>
    <linearGradient id="linear-gradient-15" x1="556.57" y1="139.16" x2="556.57" xlink:href="#linear-gradient"/>
    <linearGradient id="linear-gradient-16" x1="529.2" x2="529.2" xlink:href="#linear-gradient"/>
    <linearGradient id="linear-gradient-17" x1="559.16" x2="559.16" y2="127.65" xlink:href="#linear-gradient"/>
    <linearGradient id="linear-gradient-18" x1="539.59" y1="149.07" x2="539.59" y2="127.28" xlink:href="#linear-gradient"/>
    <linearGradient id="linear-gradient-19" x1="484.18" x2="484.18" y2="96.73" xlink:href="#linear-gradient"/>
    <linearGradient id="linear-gradient-20" x1="488.32" y1="156.58" x2="488.32" y2="154.86" xlink:href="#linear-gradient"/>
    <linearGradient id="linear-gradient-21" x1="488.32" y1="127.05" x2="488.32" y2="125.31" xlink:href="#linear-gradient"/>
    <linearGradient id="linear-gradient-22" x1="447.95" y1="156.68" x2="447.95" y2="104.38" xlink:href="#linear-gradient"/>
    <linearGradient id="linear-gradient-23" x1="445.27" y1="162.26" x2="445.27" y2="96.67" xlink:href="#linear-gradient"/>
    <linearGradient id="linear-gradient-24" x1="634.56" y1="118.03" x2="634.56" y2="96.66" xlink:href="#linear-gradient"/>
    <linearGradient id="linear-gradient-25" x1="617.43" y1="162.25" x2="617.43" y2="96.63" xlink:href="#linear-gradient"/>
    <linearGradient id="Degradado_sin_nombre_28" data-name="Degradado sin nombre 28" x1="19.74" y1="160.67" x2="150.3" y2="160.67" gradientUnits="userSpaceOnUse">
      <stop offset="0" stop-color="#9ea1d0"/>
      <stop offset="1" stop-color="#84d3ea"/>
    </linearGradient>
    <linearGradient id="Degradado_sin_nombre_28-2" data-name="Degradado sin nombre 28" x1="56.14" y1="204.88" x2="78.66" y2="204.88" xlink:href="#Degradado_sin_nombre_28"/>
    <linearGradient id="Degradado_sin_nombre_28-3" data-name="Degradado sin nombre 28" x1="92.21" y1="204.88" x2="114.73" y2="204.88" xlink:href="#Degradado_sin_nombre_28"/>
    <linearGradient id="Degradado_sin_nombre_28-4" data-name="Degradado sin nombre 28" x1="79.31" y1="223.47" x2="90.66" y2="223.47" xlink:href="#Degradado_sin_nombre_28"/>
    <linearGradient id="Degradado_sin_nombre_28-5" data-name="Degradado sin nombre 28" x1="67.2" y1="216.75" x2="78.97" y2="216.75" xlink:href="#Degradado_sin_nombre_28"/>
    <linearGradient id="Degradado_sin_nombre_28-6" data-name="Degradado sin nombre 28" x1="91.19" y1="216.75" x2="102.96" y2="216.75" xlink:href="#Degradado_sin_nombre_28"/>
    <linearGradient id="Degradado_sin_nombre_28-7" data-name="Degradado sin nombre 28" x1="16.68" y1="211.57" x2="153.46" y2="211.57" xlink:href="#Degradado_sin_nombre_28"/>
    <linearGradient id="Degradado_sin_nombre_28-8" data-name="Degradado sin nombre 28" x1="14.74" y1="117.7" x2="155.34" y2="117.7" xlink:href="#Degradado_sin_nombre_28"/>
    <linearGradient id="Degradado_sin_nombre_2" data-name="Degradado sin nombre 2" x1="60.5" y1="131.92" x2="115.86" y2="131.92" gradientUnits="userSpaceOnUse">
      <stop offset="0" stop-color="#84d3ea"/>
      <stop offset="1" stop-color="#9ea1d0"/>
    </linearGradient>
  </defs>
  <g class="cls-26">
    <g id="Capa_2" data-name="Capa 2">
      <g id="Capa_1-2" data-name="Capa 1">
        <g>
          <g>
            <path class="cls-42" d="M297.37,162.26h.79c.65-2.55.98-5.17.98-7.81v-21.59l-.02-.13c-.17-1.04-.65-1.96-1.33-2.67.68-.71,1.15-1.63,1.33-2.67l.02-.13v-21.54c0-2.86-.38-5.68-1.14-8.42h7.41l-.19-.63h-7.84c.76,2.74,1.14,5.57,1.14,8.42v21.54l-.02.13c-.17,1.04-.65,1.95-1.33,2.67.68.71,1.15,1.63,1.33,2.67l.02.13v21.59c0,2.86-.38,5.69-1.14,8.44Z"/>
            <path class="cls-5" d="M275,162.26h.79c.65-2.55.98-5.16.98-7.8v-21.57l-.02-.12c-.17-1.05-.64-1.98-1.32-2.7.68-.72,1.16-1.65,1.32-2.7l.02-.12v-21.52c0-1.78-.15-3.57-.45-5.33-.18-1.05-.41-2.08-.69-3.09h7.79c.05-.21.1-.42.16-.63h-8.58c.28,1.01.51,2.04.69,3.09.3,1.76.45,3.56.45,5.33v21.52l-.02.12c-.17,1.05-.64,1.98-1.32,2.7.68.72,1.16,1.65,1.32,2.7l.02.12v21.57c0,2.86-.38,5.69-1.14,8.43Z"/>
            <path class="cls-21" d="M257.04,144.18c.69,1.95,1.04,4.01,1.04,6.08h0c0,1.51-.58,2.92-1.63,3.98-.31.32-.67.6-1.01.81-.91.59-1.96.89-3.05.89-1.34,0-2.66-.49-3.68-1.36.09.1.17.2.27.3,1.06,1.08,2.53,1.7,4.04,1.7,1.08,0,2.14-.31,3.05-.89.35-.21.7-.49,1.01-.81,1.05-1.06,1.63-2.47,1.63-3.98v-.9c0-1.47-.25-2.94-.74-4.33l-.32-.91h6.73v-.63h-7.36l.02.05Z"/>
            <path class="cls-15" d="M241.03,150.9v-17.9l-.02-.12c-.17-1.05-.64-1.99-1.33-2.71.69-.72,1.16-1.66,1.33-2.71l.02-.12v-17.98c0-3.19,1.24-6.19,3.5-8.46,2.27-2.28,5.28-3.54,8.49-3.54,1.62,0,3.19.32,4.67.95,1.3.55,2.47,1.33,3.5,2.29-.1-.11-.2-.23-.31-.33-1.1-1.11-2.39-1.98-3.82-2.59-1.49-.63-3.06-.95-4.67-.95-3.21,0-6.22,1.26-8.49,3.54-2.26,2.26-3.5,5.26-3.5,8.46v17.98l-.02.12c-.17,1.06-.64,1.99-1.33,2.71.68.72,1.16,1.65,1.33,2.71l.02.12v17.9c0,3.18,1.24,6.19,3.5,8.46.12.12.25.23.37.34-2.09-2.23-3.24-5.11-3.24-8.17Z"/>
            <path class="cls-22" d="M256.69,105.02c.89,1.03,1.38,2.33,1.38,3.71v.46c0,1.76-.3,3.52-.88,5.18l-.18.5h.85c.55-1.58.84-3.24.84-4.91v-.6c0-1.51-.58-2.93-1.64-4-.12-.12-.24-.23-.37-.34Z"/>
            <g>
              <path class="cls-37" d="M393.77,127.37v-18.02c0-1.51-.59-2.93-1.65-4.01-.11-.12-.23-.22-.36-.33.89,1.03,1.38,2.33,1.38,3.7v18.02l-.02.13c-.17,1.04-.65,1.96-1.32,2.67.68.71,1.15,1.63,1.32,2.67l.02.13v17.93c0,1.53-.6,2.96-1.68,4.03-.3.3-.63.56-.98.77-.91.58-1.96.88-3.03.88-1.37,0-2.65-.48-3.67-1.35.09.1.17.2.26.29,1.07,1.09,2.51,1.69,4.04,1.69,1.07,0,2.12-.3,3.03-.88.35-.21.67-.47.98-.77,1.08-1.07,1.68-2.5,1.68-4.03v-17.93l-.02-.13c-.17-1.04-.65-1.96-1.32-2.67.68-.72,1.15-1.63,1.32-2.67l.02-.13Z"/>
              <path class="cls-33" d="M376.09,150.9v-17.9l-.02-.12c-.17-1.05-.64-1.98-1.33-2.7.68-.72,1.16-1.65,1.33-2.7l.02-.12v-18c0-3.18,1.24-6.18,3.48-8.45,2.27-2.29,5.29-3.55,8.51-3.55s5.94,1.16,8.17,3.24c-.11-.12-.21-.24-.32-.35-2.26-2.27-5.27-3.53-8.48-3.53s-6.24,1.26-8.51,3.55c-2.25,2.26-3.48,5.26-3.48,8.45v18l-.02.12c-.17,1.05-.64,1.98-1.33,2.7.68.72,1.16,1.65,1.33,2.7l.02.12v17.9c0,3.19,1.24,6.2,3.5,8.46.12.12.24.22.36.33-2.08-2.23-3.23-5.11-3.23-8.16Z"/>
              <path class="cls-27" d="M319.33,132.5h.63v-26.78c0-2.86-.38-5.68-1.14-8.42h7.79c.05-.21.1-.42.16-.63h-8.58c.76,2.74,1.14,5.57,1.14,8.42v27.41Z"/>
              <polygon class="cls-34" points="308.53 127.28 308.11 127.34 318.86 162.26 319.3 162.26 308.53 127.28"/>
              <g>
                <path class="cls-11" d="M329.46,97.62c-.65,2.44-.99,4.94-.99,7.48v21.28c.14.72.62,1.3,1.26,1.59v-20.35c0-3.4.58-6.79,1.71-10h-1.98Z"/>
                <polygon class="cls-11" points="316.49 123.52 316.49 122.16 308.9 97.62 308.48 97.62 316.49 123.52"/>
                <g>
                  <path class="cls-11" d="M402.28,108.72v17.76c.14.72.62,1.3,1.26,1.59v-16.83c0-2.12-.49-4.13-1.36-5.91-.18-.38-.38-.74-.6-1.09.46,1.43.7,2.93.7,4.48Z"/>
                  <path class="cls-11" d="M389.82,107.14c-.1-.15-.22-.29-.35-.43-.54-.54-1.26-.84-2.02-.84s-1.5.31-2.05.86c-.52.53-.81,1.24-.81,1.99v17.77c.15.72.63,1.29,1.26,1.58v-16.83c0-1.12.45-2.13,1.17-2.87.72-.73,1.7-1.19,2.79-1.23Z"/>
                  <path class="cls-11" d="M404.32,130.82c-1.01.07-1.85.79-2.04,1.79v17.67c0,3.96-1.55,7.69-4.36,10.49-2.8,2.79-6.52,4.33-10.47,4.33-1.55,0-3.05-.24-4.5-.7.36.22.73.43,1.11.61,1.79.86,3.79,1.35,5.91,1.35,3.73,0,7.12-1.51,9.57-3.96,2.46-2.46,3.99-5.86,3.99-9.6v-17.78c.27-1.67,1.71-2.95,3.46-2.95-1.07,0-2.03-.49-2.67-1.25Z"/>
                  <path class="cls-11" d="M385.86,152.63v-17.64c.27-1.66,1.71-2.93,3.45-2.93-1.08,0-2.03-.49-2.67-1.25-1,.07-1.84.78-2.04,1.77v17.68c0,.75.29,1.46.83,2,.13.14.28.26.43.36Z"/>
                  <path class="cls-11" d="M329.73,134.91c.26-1.68,1.71-2.96,3.45-2.96-1.07,0-2.03-.49-2.67-1.25-1.01.07-1.84.79-2.04,1.79v21.32c0,3.27.55,6.5,1.64,9.6l.59,1.68h-10.86l.39,1.26h11.21c-1.13-3.22-1.71-6.61-1.71-10.02v-21.43Z"/>
                  <path class="cls-11" d="M308.91,139.58l-1.26-4.09v18.33c0,3.27.55,6.5,1.64,9.6l.59,1.68h-11.73c-.13.42-.26.84-.41,1.26h12.88c-1.13-3.22-1.71-6.61-1.71-10.02v-16.76Z"/>
                  <path class="cls-11" d="M286.27,97.62c-.66,2.44-.99,4.95-.99,7.48v21.3c.15.71.63,1.28,1.26,1.57v-20.35c0-3.4.58-6.78,1.71-10h-1.98Z"/>
                  <path class="cls-11" d="M286.54,134.88c.27-1.66,1.71-2.93,3.45-2.93-1.08,0-2.04-.49-2.68-1.25-1,.07-1.84.78-2.04,1.77v21.35c0,3.27.55,6.5,1.64,9.59l.59,1.68h-11.72c-.13.42-.26.84-.41,1.26h12.87c-1.13-3.21-1.71-6.6-1.71-10.01v-21.46Z"/>
                  <path class="cls-11" d="M254.76,107.14c-.1-.15-.21-.28-.34-.41-.54-.55-1.27-.86-2.04-.86s-1.49.3-2.03.85c-.53.54-.82,1.25-.82,2v17.78c.15.71.63,1.28,1.26,1.56v-16.82c0-1.12.45-2.14,1.19-2.89.71-.72,1.69-1.18,2.77-1.22Z"/>
                  <path class="cls-11" d="M251.57,130.81c-1,.07-1.83.78-2.04,1.77v17.69c0,.75.29,1.46.82,1.99.14.14.28.26.44.37v-17.65c.28-1.66,1.71-2.92,3.45-2.92-1.08,0-2.04-.49-2.68-1.25Z"/>
                  <path class="cls-11" d="M267.22,150.27c0,3.93-1.54,7.65-4.32,10.46-2.81,2.82-6.54,4.37-10.51,4.37-1.54,0-3.04-.24-4.49-.7.36.22.73.43,1.12.62,1.78.86,3.78,1.34,5.89,1.34,3.75,0,7.15-1.53,9.61-4,2.44-2.46,3.96-5.84,3.96-9.57v-7.72h-1.26v5.19Z"/>
                  <path class="cls-11" d="M267.12,105.34c-.18-.38-.39-.74-.6-1.09.46,1.44.69,2.94.69,4.48v8.98h-9.46l-.44,1.26h11.16v-7.72c0-2.12-.49-4.12-1.36-5.91Z"/>
                  <path class="cls-11" d="M355.26,107.14c-.1-.15-.21-.28-.34-.41-.54-.55-1.27-.86-2.04-.86s-1.49.3-2.03.85c-.53.54-.82,1.25-.82,2v17.78c.15.71.63,1.28,1.26,1.56v-16.82c0-1.12.45-2.14,1.19-2.89.71-.72,1.69-1.18,2.77-1.22Z"/>
                  <path class="cls-11" d="M352.07,130.81c-1,.07-1.83.78-2.04,1.77v17.69c0,.75.29,1.46.82,1.99.14.14.28.26.44.37v-17.65c.28-1.66,1.71-2.92,3.45-2.92-1.08,0-2.04-.49-2.68-1.25Z"/>
                  <path class="cls-11" d="M367.72,150.27c0,3.93-1.54,7.65-4.32,10.46-2.81,2.82-6.54,4.37-10.51,4.37-1.54,0-3.04-.24-4.49-.7.36.22.73.43,1.12.62,1.78.86,3.78,1.34,5.89,1.34,3.75,0,7.15-1.53,9.61-4,2.44-2.46,3.96-5.84,3.96-9.57v-7.72h-1.26v5.19Z"/>
                  <path class="cls-11" d="M367.63,105.34c-.18-.38-.39-.74-.6-1.09.46,1.44.69,2.94.69,4.48v8.98h-9.46l-.44,1.26h11.16v-7.72c0-2.12-.49-4.12-1.36-5.91Z"/>
                </g>
              </g>
              <path class="cls-8" d="M357.54,144.18c.69,1.95,1.04,4.01,1.04,6.08h0c0,1.51-.58,2.92-1.63,3.98-.31.32-.67.6-1.01.81-.91.59-1.96.89-3.05.89-1.34,0-2.66-.49-3.68-1.36.09.1.17.2.27.3,1.06,1.08,2.53,1.7,4.04,1.7,1.09,0,2.14-.31,3.05-.89.35-.21.7-.49,1.01-.81,1.05-1.06,1.63-2.47,1.63-3.98v-.9c0-1.47-.25-2.94-.74-4.33l-.32-.91h6.73v-.63h-7.36l.02.05Z"/>
              <path class="cls-35" d="M341.53,150.9v-17.9l-.02-.12c-.17-1.05-.64-1.99-1.33-2.71.69-.72,1.16-1.66,1.33-2.71l.02-.12v-17.98c0-3.19,1.24-6.19,3.5-8.46,2.27-2.28,5.28-3.54,8.49-3.54,1.62,0,3.19.32,4.67.95,1.3.55,2.47,1.33,3.5,2.29-.1-.11-.2-.23-.31-.33-1.1-1.11-2.39-1.98-3.82-2.59-1.49-.63-3.06-.95-4.67-.95-3.21,0-6.22,1.26-8.49,3.54-2.26,2.26-3.5,5.26-3.5,8.46v17.98l-.02.12c-.17,1.06-.64,1.99-1.33,2.71.68.72,1.16,1.65,1.33,2.71l.02.12v17.9c0,3.18,1.24,6.19,3.5,8.46.12.12.25.23.37.34-2.09-2.23-3.24-5.11-3.24-8.17Z"/>
              <path class="cls-9" d="M357.2,105.02c.89,1.03,1.38,2.33,1.38,3.71v.46c0,1.76-.3,3.52-.88,5.18l-.18.5h.85c.55-1.58.84-3.24.84-4.91v-.6c0-1.51-.58-2.93-1.64-4-.12-.12-.24-.23-.37-.34Z"/>
              <path class="cls-2" d="M667.98,127.37v-18.02c0-1.51-.59-2.93-1.65-4.01-.11-.12-.23-.22-.36-.33.89,1.03,1.38,2.33,1.38,3.7v18.02l-.02.13c-.17,1.04-.65,1.96-1.32,2.67.68.71,1.15,1.63,1.32,2.67l.02.13v17.93c0,1.53-.6,2.96-1.68,4.03-.3.3-.63.56-.98.77-.91.58-1.96.88-3.03.88-1.37,0-2.65-.48-3.67-1.35.09.1.17.2.26.29,1.07,1.09,2.51,1.69,4.04,1.69,1.07,0,2.12-.3,3.03-.88.35-.21.67-.47.98-.77,1.08-1.07,1.68-2.5,1.68-4.03v-17.93l-.02-.13c-.17-1.04-.65-1.96-1.32-2.67.68-.72,1.15-1.63,1.32-2.67l.02-.13Z"/>
              <path class="cls-30" d="M650.3,150.9v-17.9l-.02-.12c-.17-1.05-.64-1.98-1.33-2.7.68-.72,1.16-1.65,1.33-2.7l.02-.12v-18c0-3.18,1.24-6.18,3.48-8.45,2.27-2.29,5.29-3.55,8.51-3.55s5.94,1.16,8.17,3.24c-.11-.12-.21-.24-.32-.35-2.26-2.27-5.27-3.53-8.48-3.53s-6.24,1.26-8.51,3.55c-2.25,2.26-3.48,5.26-3.48,8.45v18l-.02.12c-.17,1.05-.64,1.98-1.33,2.7.68.72,1.16,1.65,1.33,2.7l.02.12v17.9c0,3.19,1.24,6.2,3.5,8.46.12.12.24.22.36.33-2.08-2.23-3.23-5.11-3.23-8.16Z"/>
              <path class="cls-1" d="M546.7,139.16l12.94-41.86h7.05c.05-.21.1-.42.16-.63h-7.84l-12.72,41.15.41,1.33Z"/>
              <path class="cls-41" d="M525.28,162.26h.79c.65-2.55.98-5.17.98-7.81v-21.57l-.02-.13c-.17-1.05-.65-1.97-1.33-2.69.68-.72,1.16-1.64,1.33-2.69l.02-.13v-21.53c0-2.85-.38-5.67-1.14-8.41h7.41l-.2-.63h-7.85c.76,2.74,1.14,5.56,1.14,8.41v21.53l-.02.13c-.17,1.05-.64,1.97-1.33,2.69.68.72,1.16,1.64,1.33,2.69l.02.13v21.57c0,2.86-.38,5.69-1.14,8.44Z"/>
              <path class="cls-32" d="M560.04,154.49v-26.75l-.63-.09v26.22c0,2.85-.38,5.66-1.13,8.4h.78c.64-2.54.98-5.13.98-7.77Z"/>
              <polygon class="cls-44" points="536.44 127.28 536.02 127.34 542.71 149.07 543.15 149.07 536.44 127.28"/>
              <path class="cls-36" d="M473.48,162.26h.79c.65-2.55.98-5.17.98-7.81v-21.48l-.02-.13c-.17-1.04-.65-1.96-1.33-2.67.68-.71,1.15-1.63,1.33-2.67l.02-.13v-21.47c0-2.9-.39-5.76-1.16-8.54h20.99v-.63h-21.62c.77,2.78,1.16,5.64,1.16,8.54v21.47l-.02.13c-.17,1.04-.65,1.95-1.33,2.67.68.71,1.15,1.63,1.33,2.67l.02.13v21.48c0,2.86-.38,5.69-1.14,8.44Z"/>
              <path class="cls-31" d="M481.56,155.95v.63h6.86c2.25,0,4.48-.32,6.66-.92v-.8c-2.37.72-4.82,1.09-7.29,1.09h-6.23Z"/>
              <path class="cls-38" d="M481.56,126.42v.63h6.48c2.38,0,4.74-.33,7.05-.94v-.79c-2.5.73-5.08,1.11-7.68,1.11h-5.85Z"/>
              <g>
                <path class="cls-11" d="M497.92,155.62v9.47h-23.65c-.13.42-.26.84-.41,1.26h25.31v-11.17s-1.07.38-1.07.38c-.06.02-.12.04-.19.06Z"/>
                <path class="cls-11" d="M497.92,97.67v10.42l-1.68-.59c-3.08-1.09-6.3-1.64-9.59-1.64h-2.89v17.71h1.26v-16.45h4.15c3.41,0,6.79.57,10.01,1.71v-11.16h-1.26Z"/>
                <path class="cls-11" d="M497.92,126.08v11.7l-2.76-.97c-2.37-.84-4.85-1.26-7.37-1.26h-4.03v17.56h1.26v-16.29h5.29c2.65,0,5.29.45,7.79,1.33l1.08.38v-12.88l-.72.25c-.18.06-.36.12-.54.18Z"/>
                <path class="cls-11" d="M462.21,106.67v19.33c.02.85.53,1.58,1.26,1.94v-18.74c0-1.56-.31-3.04-.88-4.39-.25-.61-.56-1.19-.91-1.75.35,1.16.53,2.38.53,3.62Z"/>
                <path class="cls-11" d="M450.03,105.99c-.12-.12-.34-.27-.66-.27h-5.07v20.21c0,.88.52,1.64,1.26,2.01v-20.96h4.76v-.31c0-.26-.1-.5-.29-.68Z"/>
                <path class="cls-11" d="M445.57,135.46h0c0-1.94,1.57-3.5,3.5-3.5-1.07,0-2.03-.48-2.68-1.24-1.16.08-2.09,1.04-2.09,2.23v20.28s1.26,0,1.26,0v-17.76Z"/>
                <path class="cls-11" d="M464.29,130.71c-1.14.08-2.06,1.02-2.08,2.18v17.43c0,3.95-1.55,7.66-4.35,10.46-2.79,2.78-6.49,4.31-10.41,4.31h-12.52c-.13.42-.26.84-.41,1.26h15.46c3.71,0,7.08-1.51,9.52-3.95,2.46-2.45,3.98-5.83,3.98-9.56v-17.45c.03-1.91,1.59-3.44,3.5-3.44-1.08,0-2.04-.48-2.68-1.24Z"/>
              </g>
              <path class="cls-23" d="M453.79,107.3c0-1.02-.4-1.98-1.14-2.71-.08-.08-.18-.14-.27-.22.5.66.78,1.45.78,2.29v19.29c0,1.35-.54,2.57-1.41,3.48.87.91,1.4,2.13,1.41,3.48v17.41c0,1.54-.61,2.99-1.71,4.08-.41.4-.87.74-1.37,1-.81.42-1.72.65-2.64.65h-5.34v.63h5.97c.92,0,1.83-.22,2.64-.65.5-.26.97-.6,1.37-1,1.1-1.09,1.71-2.53,1.71-4.08v-17.41c0-1.35-.54-2.58-1.41-3.48.87-.91,1.4-2.13,1.41-3.48v-19.29Z"/>
              <path class="cls-43" d="M434.13,162.26h.79c.65-2.55.98-5.16.98-7.81v-20.89c0-1.36-.54-2.59-1.41-3.5.87-.91,1.4-2.15,1.4-3.5v-20.83c0-2.86-.38-5.68-1.14-8.42h15.25c2.49,0,4.84.91,6.68,2.58-.09-.1-.17-.2-.27-.29l-.18-.18c-1.86-1.78-4.29-2.75-6.87-2.75h-15.25c.76,2.75,1.14,5.57,1.14,8.43v20.83c0,1.36-.54,2.59-1.41,3.5.87.91,1.4,2.15,1.41,3.5v20.89c0,2.86-.38,5.69-1.14,8.44Z"/>
              <path class="cls-24" d="M626.75,116.92l.44,1.11,4.87-12.21c1.08-2.72,1.37-5.68.88-8.53h9.08c.12-.21.23-.42.36-.63h-10.06c.49,2.85.19,5.81-.88,8.53l-4.68,11.73Z"/>
              <path class="cls-6" d="M622.28,162.25h.79c.65-2.54.98-5.15.98-7.79v-21.59c-.16-1.08-.65-2.05-1.37-2.8.62-.65,1.07-1.46,1.28-2.39l.11-.48-8.66-21.81c-1.11-2.8-2.45-5.52-3.99-8.12h9.36c.03-.22.05-.43.09-.64h-10.08c1.54,2.61,2.88,5.33,3.99,8.12l8.66,21.81-.11.48c-.21.93-.66,1.75-1.28,2.39.71.75,1.2,1.72,1.35,2.8v.11s.01,21.49.01,21.49c0,2.86-.38,5.68-1.14,8.42Z"/>
              <g>
                <path class="cls-11" d="M676.49,108.72v17.76c.14.72.62,1.3,1.26,1.59v-16.83c0-2.12-.49-4.13-1.36-5.91-.18-.38-.38-.74-.6-1.09.46,1.43.7,2.93.7,4.48Z"/>
                <path class="cls-11" d="M664.03,107.14c-.1-.15-.22-.29-.35-.43-.54-.54-1.26-.84-2.02-.84s-1.5.31-2.05.86c-.52.53-.81,1.24-.81,1.99v17.77c.15.72.63,1.29,1.26,1.58v-16.83c0-1.12.45-2.13,1.17-2.87.72-.73,1.7-1.19,2.79-1.23Z"/>
                <path class="cls-11" d="M678.53,130.82c-1.01.07-1.84.79-2.04,1.79v17.67c0,3.96-1.55,7.69-4.36,10.49-2.8,2.79-6.52,4.33-10.47,4.33-1.55,0-3.05-.24-4.5-.7.36.22.73.43,1.11.61,1.79.86,3.79,1.35,5.91,1.35,3.73,0,7.12-1.51,9.57-3.96,2.46-2.46,3.99-5.86,3.99-9.6v-17.78c.27-1.67,1.71-2.95,3.46-2.95-1.07,0-2.03-.49-2.67-1.25Z"/>
                <path class="cls-11" d="M660.07,152.63v-17.64c.27-1.66,1.71-2.93,3.45-2.93-1.08,0-2.03-.49-2.67-1.25-1,.07-1.84.78-2.04,1.77v17.68c0,.75.29,1.46.83,2,.13.14.28.26.43.36Z"/>
                <path class="cls-11" d="M536.82,139.58l-1.26-4.09v18.37c0,3.26.55,6.48,1.63,9.55l.59,1.68h-11.71c-.13.42-.26.84-.41,1.26h12.87c-1.13-3.21-1.7-6.58-1.7-9.97v-16.8Z"/>
                <polygon class="cls-11" points="546.07 128.92 546.28 128.24 536.81 97.62 536.39 97.62 546.07 128.92"/>
                <path class="cls-11" d="M569.54,97.62c-.65,2.44-.99,4.94-.99,7.48v21.28c.14.72.62,1.3,1.26,1.59v-20.35c0-3.4.58-6.79,1.71-10h-1.98Z"/>
                <polygon class="cls-11" points="556.57 135.49 551.52 151.91 543.68 151.91 544.07 153.17 553.11 153.17 556.57 141.92 556.57 135.49"/>
                <path class="cls-11" d="M569.81,134.91c.26-1.67,1.71-2.96,3.45-2.96-1.07,0-2.03-.49-2.67-1.25-.99.07-1.85.81-2.04,1.79v21.32c0,3.27.55,6.5,1.64,9.6l.59,1.68h-11.72c-.13.42-.26.84-.41,1.26h12.87c-1.13-3.22-1.71-6.61-1.71-10.02v-21.43Z"/>
                <path class="cls-11" d="M637.26,131.94c-1.07,0-2.03-.49-2.67-1.25-.98.07-1.81.76-2.03,1.72v21.42c0,2.97.46,5.9,1.36,8.73h.35v1.26s0,1.26,0,1.26h-1.26s-9.95,0-9.95,0c-.13.42-.26.84-.41,1.26h12.88s0,0,0,0h0c-1.13-3.21-1.71-6.59-1.71-9.99v-21.55c.3-1.63,1.73-2.86,3.44-2.86Z"/>
                <path class="cls-11" d="M623.59,97.57c-.31,2.21-.04,4.49.79,6.58l2.19,5.55.09-.22-.92-2.35c-1.21-3.05-1.34-6.44-.34-9.57h-1.8Z"/>
                <path class="cls-11" d="M645.12,97.6c-1.58,2.61-2.96,5.35-4.09,8.19l-8.37,20.98c.29.7.9,1.19,1.64,1.34l8.08-20.27c1.43-3.59,3.22-7.02,5.35-10.24h-2.61Z"/>
                <path class="cls-11" d="M600.63,97.62c-.3,2.33-.24,4.69.16,7.03l3.51,20.32c.12.67.52,1.23,1.08,1.56l-3.31-19.14c-.56-3.25-.48-6.56.25-9.77h-1.69Z"/>
                <path class="cls-11" d="M605.5,131.88l3.71,21.42c.54,3.11,1.55,6.09,3,8.88-.77-1.98-1.36-4.04-1.72-6.15l-3.71-21.42c-.33-1.91.95-3.72,2.86-4.05-1.17.2-2.3-.2-3.08-.99-.77.46-1.21,1.36-1.05,2.3Z"/>
                <path class="cls-11" d="M614.18,166.34h0c-.24-.43-.46-.85-.68-1.27l-1.83.02h-10.66c-.07.42-.15.84-.25,1.26h13.43,0Z"/>
                <path class="cls-11" d="M590.18,156.73l.03-.18h7.3c-.03-.42-.07-.84-.12-1.26h-8.62c-.39,2.77-.28,5.54.33,8.27l.34,1.54h-11.8c-.22.42-.45.85-.68,1.26h13.43c-.71-3.16-.78-6.44-.21-9.63Z"/>
                <polygon class="cls-11" points="593.96 135.36 593.13 130.53 590.86 143.31 592.55 143.31 593.96 135.36"/>
              </g>
              <g>
                <path class="cls-39" d="M404.47,129.54c-1.75,0-3.19-1.28-3.46-2.95v-17.87c0-2.12-.49-4.13-1.36-5.91-.66-1.37-1.54-2.6-2.61-3.67-2.45-2.46-5.85-3.99-9.59-3.99s-7.17,1.54-9.63,4.02c-2.43,2.45-3.94,5.83-3.94,9.56v17.87c-.27,1.67-1.71,2.95-3.45,2.95,1.75,0,3.19,1.28,3.45,2.95v17.78c0,3.73,1.51,7.12,3.96,9.57,1.07,1.07,2.32,1.97,3.7,2.64,1.79.86,3.79,1.35,5.91,1.35,3.73,0,7.12-1.51,9.57-3.96,2.46-2.46,3.99-5.86,3.99-9.6v-17.78c.27-1.67,1.71-2.95,3.46-2.95ZM390.34,153.19c-.21.21-.45.4-.71.55-.64.4-1.39.64-2.19.64-1.14,0-2.18-.47-2.92-1.22-.74-.74-1.19-1.76-1.19-2.89v-17.8c.27-1.66,1.71-2.93,3.45-2.93-1.74,0-3.18-1.27-3.45-2.93v-17.89c0-1.12.45-2.13,1.17-2.87.75-.76,1.79-1.24,2.94-1.24s2.17.47,2.91,1.22c.74.75,1.2,1.77,1.2,2.9v17.89c-.27,1.66-1.71,2.93-3.45,2.93,1.74,0,3.18,1.27,3.45,2.93v17.8c0,1.14-.47,2.17-1.22,2.92Z"/>
                <path class="cls-39" d="M327.21,153.82c0,3.41.58,6.8,1.71,10.02h-11.21l-11.31-36.72v26.71c0,3.41.58,6.8,1.71,10.02h-12.88c1.13-3.22,1.71-6.61,1.71-10.02v-21.46c-.28-1.66-1.71-2.93-3.45-2.93,1.74,0,3.18-1.26,3.45-2.92v-21.41c0-3.4-.58-6.79-1.71-10h11.15l11.37,36.77v-26.78c0-3.4-.58-6.79-1.71-10h12.87c-1.13,3.21-1.71,6.59-1.71,10v21.39c.26,1.68,1.71,2.95,3.45,2.95-1.75,0-3.19,1.28-3.45,2.96v21.43Z"/>
                <path class="cls-39" d="M284.02,153.82c0,3.41.58,6.8,1.71,10.01h-12.87c1.13-3.21,1.71-6.6,1.71-10.01v-21.44c-.26-1.67-1.71-2.95-3.45-2.95,1.75,0,3.19-1.27,3.45-2.94v-21.39c0-1.7-.14-3.4-.43-5.07-.29-1.68-.71-3.32-1.28-4.93h12.87c-1.13,3.21-1.71,6.59-1.71,10v21.41c.27,1.66,1.71,2.92,3.45,2.92-1.74,0-3.18,1.27-3.45,2.93v21.46Z"/>
                <path class="cls-39" d="M255.55,114.27c.63-1.78.95-3.66.95-5.55h0c0-1.12-.45-2.14-1.18-2.89-.74-.76-1.78-1.23-2.93-1.23s-2.18.47-2.92,1.23c-.74.74-1.19,1.76-1.19,2.89v17.89c.28,1.66,1.71,2.92,3.45,2.92-1.74,0-3.18,1.27-3.45,2.92v17.81c0,1.12.45,2.14,1.19,2.88.74.76,1.78,1.23,2.92,1.23.81,0,1.56-.23,2.19-.64.27-.16.52-.36.74-.59.74-.74,1.18-1.76,1.18-2.88h0c0-1.89-.32-3.77-.95-5.56l-.76-2.15h11.16v7.72c0,3.73-1.52,7.11-3.96,9.57-2.46,2.47-5.86,4-9.61,4-2.11,0-4.11-.49-5.89-1.34-1.38-.67-2.64-1.58-3.71-2.65-2.45-2.46-3.96-5.84-3.96-9.57v-17.78c-.26-1.67-1.71-2.96-3.45-2.96,1.75,0,3.19-1.28,3.45-2.96v-17.86c0-3.73,1.51-7.11,3.96-9.57,2.45-2.47,5.86-4,9.61-4,1.87,0,3.66.38,5.29,1.07,1.63.69,3.09,1.7,4.32,2.93,1.06,1.07,1.94,2.3,2.6,3.66.87,1.78,1.36,3.79,1.36,5.91v7.72h-11.16l.76-2.17Z"/>
                <path class="cls-39" d="M356.06,114.27c.63-1.78.95-3.66.95-5.55h0c0-1.12-.45-2.14-1.18-2.89-.74-.76-1.78-1.23-2.93-1.23s-2.18.47-2.92,1.23c-.74.74-1.18,1.76-1.18,2.89v17.89c.28,1.66,1.71,2.92,3.45,2.92-1.74,0-3.18,1.27-3.45,2.92v17.81c0,1.12.45,2.14,1.18,2.88.74.76,1.78,1.23,2.92,1.23.81,0,1.56-.23,2.19-.64.27-.16.52-.36.74-.59.74-.74,1.18-1.76,1.18-2.88h0c0-1.89-.32-3.77-.95-5.56l-.76-2.15h11.16v7.72c0,3.73-1.52,7.11-3.96,9.57-2.46,2.47-5.86,4-9.61,4-2.11,0-4.11-.49-5.89-1.34-1.38-.67-2.64-1.58-3.71-2.65-2.45-2.46-3.96-5.84-3.96-9.57v-17.78c-.26-1.67-1.71-2.96-3.45-2.96,1.75,0,3.19-1.28,3.45-2.96v-17.86c0-3.73,1.51-7.11,3.96-9.57,2.45-2.47,5.86-4,9.61-4,1.87,0,3.66.38,5.29,1.07,1.63.69,3.09,1.7,4.32,2.93,1.06,1.07,1.94,2.3,2.6,3.66.87,1.78,1.36,3.79,1.36,5.91v7.72h-11.16l.76-2.17Z"/>
                <path class="cls-39" d="M678.68,129.54c-1.75,0-3.19-1.28-3.46-2.95v-17.87c0-2.12-.49-4.13-1.36-5.91-.66-1.37-1.54-2.6-2.61-3.67-2.45-2.46-5.85-3.99-9.59-3.99s-7.17,1.54-9.63,4.02c-2.43,2.45-3.94,5.83-3.94,9.56v17.87c-.27,1.67-1.71,2.95-3.45,2.95,1.75,0,3.19,1.28,3.45,2.95v17.78c0,3.73,1.51,7.12,3.96,9.57,1.07,1.07,2.32,1.97,3.7,2.64,1.79.86,3.79,1.35,5.91,1.35,3.73,0,7.12-1.51,9.57-3.96,2.46-2.46,3.99-5.86,3.99-9.6v-17.78c.27-1.67,1.71-2.95,3.46-2.95ZM664.56,153.19c-.21.21-.45.4-.71.55-.64.4-1.39.64-2.19.64-1.14,0-2.18-.47-2.92-1.22-.74-.74-1.19-1.76-1.19-2.89v-17.8c.27-1.66,1.71-2.93,3.45-2.93-1.74,0-3.18-1.27-3.45-2.93v-17.89c0-1.12.45-2.13,1.17-2.87.75-.76,1.79-1.24,2.94-1.24s2.17.47,2.91,1.22c.74.75,1.2,1.77,1.2,2.9v17.89c-.27,1.66-1.71,2.93-3.45,2.93,1.74,0,3.18,1.27,3.45,2.93v17.8c0,1.14-.47,2.17-1.22,2.92Z"/>
                <path class="cls-39" d="M567.29,153.82c0,3.41.58,6.8,1.71,10.02h-12.87c1.13-3.21,1.7-6.58,1.7-9.97v-26.75l-7.24,23.54h-9.04l-7.25-23.54v26.75c0,3.39.57,6.76,1.7,9.97h-12.86c1.13-3.22,1.71-6.61,1.71-10.02v-21.44c-.27-1.67-1.71-2.94-3.45-2.94,1.75,0,3.18-1.27,3.45-2.94v-21.41c0-3.4-.58-6.78-1.71-9.98h0s11.16,0,11.16,0l11.78,38.1,11.77-38.1h11.15c-1.13,3.21-1.71,6.59-1.71,10v21.39c.26,1.67,1.71,2.95,3.45,2.95-1.75,0-3.19,1.29-3.45,2.96v21.43Z"/>
                <path class="cls-39" d="M496.66,95.15v11.16c-3.21-1.13-6.6-1.71-10.01-1.71h-4.15v20.23h4.9c2.91,0,5.79-.5,8.53-1.46l.72-.25v12.88l-1.08-.38c-2.5-.88-5.14-1.33-7.79-1.33h-5.29v20.08h5.29c2.65,0,5.29-.45,7.79-1.33l1.08-.38v11.17h-25.32c1.13-3.22,1.71-6.61,1.71-10.02v-21.35c-.28-1.66-1.71-2.93-3.45-2.93,1.74,0,3.18-1.26,3.45-2.92v-21.34c0-3.45-.59-6.87-1.73-10.12h25.34Z"/>
                <path class="cls-39" d="M464.45,129.43c-1.91,0-3.46-1.53-3.5-3.44v-19.33c0-1.56-.31-3.04-.88-4.39-.59-1.44-1.46-2.73-2.55-3.8h0c-2.09-2.1-4.97-3.38-8.15-3.38h-17.39c1.13,3.22,1.71,6.6,1.71,10.01v20.83h0c0,1.94-1.57,3.5-3.5,3.5,1.94,0,3.5,1.57,3.5,3.5h0v20.89c0,3.41-.58,6.79-1.71,10.01h15.46c3.71,0,7.08-1.51,9.52-3.95,2.46-2.45,3.98-5.83,3.98-9.56v-17.45c.03-1.91,1.59-3.44,3.5-3.44ZM450.35,153.28c-.3.29-.63.54-1,.73-.57.3-1.22.47-1.91.47h-4.39v-21.54h0c0-1.94,1.57-3.5,3.5-3.5-1.94,0-3.5-1.57-3.5-3.5h0v-21.47h6.33c.61,0,1.14.24,1.54.63.41.4.67.96.67,1.58v19.28c-.01,1.93-1.57,3.48-3.5,3.48,1.93,0,3.49,1.56,3.5,3.48v17.41c0,1.15-.47,2.2-1.24,2.95Z"/>
                <path class="cls-39" d="M639.86,105.33l-8.53,21.4c.37,1.54,1.75,2.7,3.41,2.7-1.71,0-3.14,1.23-3.44,2.86v21.55c0,3.4.58,6.78,1.71,9.98h0s0,0,0,0h0s-12.88,0-12.88,0c1.13-3.21,1.71-6.59,1.71-10v-21.38c-.23-1.71-1.7-3.03-3.47-3.03,1.67,0,3.06-1.17,3.42-2.73l-8.48-21.36c-1.43-3.6-3.23-7.04-5.38-10.27h14.93c-1,3.13-.87,6.51.34,9.56l3.35,8.5,3.4-8.52c1.2-3.04,1.33-6.4.35-9.52h14.91c-2.13,3.22-3.92,6.65-5.35,10.24Z"/>
                <path class="cls-39" d="M611.65,163.82h0c-1.82-3.21-3.06-6.69-3.69-10.31l-3.71-21.42c-.33-1.91.95-3.72,2.86-4.05-1.9.33-3.72-.95-4.05-2.86l-3.51-20.32c-.56-3.25-.48-6.56.25-9.77h-13.19s0,0,0,0c.71,3.2.78,6.5.21,9.72l-3.62,20.4c-.37,1.88-2.16,3.12-4.05,2.79,1.9.34,3.17,2.15,2.84,4.06l-3.79,21.39c-.65,3.65-1.92,7.16-3.76,10.38h13.43c-.71-3.16-.78-6.44-.21-9.63l.03-.18h10.77v.05c.57,3.24.49,6.55-.23,9.76h13.43,0ZM596.8,144.43l.03.14h-7.47l3.78-21.36,3.66,21.22Z"/>
              </g>
              <g>
                <rect class="cls-39" x="223.23" y="82.74" width="477.09" height="1.28"/>
                <rect class="cls-39" x="214.66" y="78.7" width="9.31" height="9.31" transform="translate(123.18 -130.67) rotate(45)"/>
                <rect class="cls-39" x="696.36" y="78.7" width="9.31" height="9.31" transform="translate(264.26 -471.28) rotate(45)"/>
              </g>
              <g>
                <rect class="cls-39" x="223.23" y="176.4" width="477.09" height="1.28"/>
                <rect class="cls-39" x="214.66" y="172.35" width="9.31" height="9.31" transform="translate(189.4 -103.24) rotate(45)"/>
                <rect class="cls-39" x="696.36" y="172.35" width="9.31" height="9.31" transform="translate(330.48 -443.84) rotate(45)"/>
              </g>
            </g>
          </g>
          <g>
            <path class="cls-29" d="M44.52,252.7c-1.97.77-4.91.84-6.95.52-2.13-.33-4.02-1.2-6-1.98-1.62-.63-2.36,1.81-1.08,2.67,2.08,1.4,4.91,1.84,7.37,1.55,1.22-.14,2.47-.39,3.62-.79,1.28-.44,1.97-1.15,3.08-1.86.05-.03.02-.13-.04-.1h0Z"/>
            <path class="cls-11" d="M51.72,255c-1.08.8-2.87,1.33-4.18,1.47-1.36.15-2.67-.08-4.01-.23-1.1-.12-1.15,1.5-.22,1.82,1.51.52,3.32.32,4.78-.27.72-.29,1.45-.64,2.1-1.08.71-.48,1.02-1.03,1.59-1.65.03-.03,0-.08-.04-.06h0Z"/>
            <path class="cls-3" d="M77.68,20.57l-10.62,4.87v-14.16L85.03,0l17.45,11.28v14.16l-10.52-4.87v26.69l-7.15-11.7-7.12,11.7v-26.69Z"/>
            <path class="cls-3" d="M65.1,25.63l-11.01,5.8v9.71l10.59-3.66v13.59l-10.59.95v13.28l11.01-.4-6.34,10.62-13.86.11V24.57l20.19-12.01v13.07Z"/>
            <path class="cls-3" d="M103.88,11.68l9.52,4.96v21.41l6.46,2.97v-21.01l8.77,4.57v51.45h-8.77v-25.46l-6.46-2.8v28.22l-9.52-13.13V11.68Z"/>
            <g>
              <polygon class="cls-17" points="24.56 170.16 85.03 254.62 84.94 205.38 24.56 170.16"/>
              <polyline class="cls-4" points="84.94 205.38 145.72 170.17 85.04 254.67"/>
              <polygon class="cls-7" points="19.74 153.61 84.83 129.32 150.3 153.68 85.19 192.02 19.74 153.61"/>
              <path class="cls-13" d="M78.62,207.54c-4.71-2.95-9.44,1.84-13.97,2.64-3.23.57-7.15-.73-8.24-4.1-1.07-3.31,1.08-6.27,4.47-6.61,2.62-.27,5.87,2.25,3.96,4.99-.17.25-.56.03-.41-.24,1.18-2.04-.57-4.1-2.7-4.25-1.92-.14-3.91.97-4.44,2.88-.93,3.4,2.15,5.96,5.27,6.22,5.28.44,11.16-5.59,16.08-1.57.02.02,0,.05-.03.04h0Z"/>
              <g class="cls-19">
                <path class="cls-28" d="M92.25,207.54c4.71-2.95,9.44,1.84,13.97,2.64,3.23.57,7.15-.73,8.24-4.1,1.07-3.31-1.08-6.27-4.47-6.61-2.62-.27-5.87,2.25-3.96,4.99.17.25.56.03.41-.24-1.18-2.04.57-4.1,2.7-4.25,1.92-.14,3.91.97,4.44,2.88.93,3.4-2.15,5.96-5.27,6.22-5.28.44-11.16-5.59-16.08-1.57-.02.02,0,.05.03.04h0Z"/>
              </g>
              <path class="cls-20" d="M79.31,227.21c0-3.13,5.72-13.14,5.67-13.14-.1,0,5.67,10.01,5.67,13.14s-2.54,5.67-5.67,5.67-5.67-2.54-5.67-5.67Z"/>
              <path class="cls-14" d="M68.51,215.02c1.74-1.74,10.49-4.13,10.47-4.15-.06-.06-2.41,8.72-4.15,10.47-1.74,1.74-4.57,1.74-6.31,0-1.74-1.74-1.74-4.57,0-6.31Z"/>
              <path class="cls-18" d="M101.65,215.02c-1.74-1.74-10.49-4.13-10.47-4.15.06-.06,2.41,8.72,4.15,10.47,1.74,1.74,4.57,1.74,6.31,0,1.74-1.74,1.74-4.57,0-6.31Z"/>
              <path class="cls-45" d="M85.05,260.36h0c-1.22,0-2.37-.59-3.09-1.59L17.39,168.82c-1.05-1.46-.93-3.45.28-4.78,1.21-1.33,3.18-1.63,4.73-.72l62.64,36.69,62.68-36.69c1.55-.91,3.52-.61,4.73.72,1.21,1.33,1.33,3.32.28,4.78l-64.61,89.95c-.72.99-1.86,1.58-3.09,1.58ZM34.02,178.94l51.03,71.09,51.06-71.1-49.14,28.76c-1.19.69-2.66.69-3.84,0l-49.1-28.76Z"/>
              <path class="cls-40" d="M55.26,163.35c-.26.18.97.51,1.32.65.35.14,1.98,1.1,2.61,1.48.63.39,1.49.9,1.78,1.36.29.46-.04.75.6.77.64.02,1.66-.05,1.79,0s.42.48.42.48c0,0-1.06,3.71,1.03,3.51,2.09-.19-.06,1.04,1.31-1.21.13-.21-.31-2.53-1.11-2.63s-1.66-1.44-2.01-1.62c-.35-.18-.14-.35-.25-.64-.11-.29-1.11-1.11-1.29-1.29s.04-.47.07-.78c.03-.31-.37-.61.62-1.28.99-.67,1.28-1.54,1.65-1.84.37-.3.25-.43.25-.43,0,0,1.06-.08,2.11-.29,1.05-.22,1.68.2,1.71.51.03.31-.71,1.11-1.42,1.57-.72.46-.57.98.39.99.96,0,5.37.29,6.05.55.69.26.33.91,1.06.95s4.91.04,4.73-.39c-.18-.42-.87-.68-1.96-.91-1.09-.23-4.12-.66-4.69-.83-.57-.17-2.03-.43-1.07-.96,0,0-.08-.52.36-.73.44-.21,5.39-1.44,5.37-1.67-.02-.22.03-.97.03-1.05,0-.08.97-.48.97-.48,0,0,3.87-1.11,4.92-1.49,1.06-.38,1.33-.51,1.82-.55.5-.04,1.75.6,2.45.74.69.14,1.5.41,2.18.38.68-.03,1.49-.09,1.93.11.44.2.78.58,1.18.88.4.3.76.57,1.16.74s.85.46,1.06.79c.22.33.9.71,1.24.96.34.26.89.46,1.87.43.98-.02.4,0,1.1.03.7.02,1.67-.21,2.03.01.36.23-.56,4.55-.52,4.62.04.07,1.95.95,4.3.54.15-.3.98-1.6.17-1.7-.8-.1-1.26-.09-2.3-.22-1.04-.13-.6-4.07-2.07-4.3-1.48-.23-2.22-.2-2.55-.56s-1.24-1.04-1.31-1.14c-.07-.1-.3-1.36-.5-1.52-.2-.16-.68-.47-.46-.85.22-.38.39-1,.16-1.33-.23-.34-.61-.54-.08-.52.53.02,1.8.26,2.26.47.46.21.88.4.73.7-.15.3-.4.36-.21.51.19.14-.58.23-.1.42.49.2,1.2.11-.01.28-1.22.17-4.02.46-1.12,1.74.81.23,2.66.11,3.43-.48.77-.59.72-.83,1.06-1.12.34-.29.5-.57.87-.84.36-.28-.23-.43-.62-.72-.39-.29-.97-.72-1-1.08s-.58-.92-1.85-1.13c-1.28-.2-1.67-.37-2.62-.29-.95.08-1.07.07-1.23.08-.16,0-.36-.6-.44-.91-.08-.31-.53-.97-1.51-1.24-.98-.27-2.16-.49-2.37-.72-.21-.24-.08-.6-.44-.78-.36-.19-.41-.88-.41-.88,0,0,.29.75,1.11.82.82.07,1.6.12,2.14.35.54.23,1.25.64,2.17.69.91.05,3.04-.1,3.56-.3.52-.19.35-.61.64-1.02.28-.41.82-.21.32-.46-.5-.25-1.8-.6-2.02-.96-.22-.37-.66-.37-.44-.57.23-.2.31-.35.3-.44-.01-.09.82-.22.36-.4-.46-.17-1.46-.37-1.76-.52-.3-.14-.11-.21-.11-.21,0,0-.95-.18-.84-.28.11-.1,1.71-.45,2.13-.72.42-.27-.02-.73-.02-.73,0,0-.76.11-1.45.3-.69.19-1.54.51-2.1.55-.56.04-.81.06-1.25.11-.44.05-1.78.33-2.5.34-.71,0-.86.11-1.78.04-.93-.07-1.74,0-1.46.12.27.12.06.12.06.12,0,0-1.44-.03-3.77.81-2.33.84-4.3,1.7-4.41,2.08-.11.37-.41.52-.41.52,0,0-.26-.4-1.72-.4-1.46,0-1.63-.05-2.49-.23-.86-.18-1.29-.29-1.29-.29,0,0,1.25-.15.19-.44-1.06-.29-1.07-.11-.94-.2.12-.08-.23-.18-.23-.18,0,0-1.62.17-2.05.39-1.44.05-2.16.23-3.12.22-.96,0-1.54-.09-1.68-.14-.14-.05-.31-.09-.09-.18.22-.08.69-.2.69-.33,0-.13-.14-.44-.39-.55-.26-.11-.64-.16-.65-.18,0-.03.19-.16-.02-.27-.21-.11-.82-.25-1.54-.32-.19-.12-.28-.15-.44-.16-.16-.01-.16,0-.16,0,0,0-.11-.25-2.59.19-2.48.44-2.58,1.05-2.43,1.24s1.02.44,1.54.53c.53.09,1.48.25,1.48.25l.13.04s-.67.12-.81.16c-.14.05.37.23.37.23,0,0-.95.14-1.47.15-.52.01-2.35.12-2.77.13-.42,0-.71.04-.79.05-.07.01-.55.19-.64.2-.1.01-1.12.19-1.63.25-.52.06-1.53.24-1.98.28s-1.26.17-1.97.15c-.71-.02-2.24.05-3.79,0-1.55-.05-2.92-.12-3.21-.1-.29.02-.39.09-.81.1-.42,0-1.56-.03-2-.07-.44-.03-1.07-.03-1.07-.03,0,0-1.33.03-2.27.11-.94.09-1.6.21-.64.22.96.01,1.72-.02,1.91,0s.2.02.13.04c-.06.02-.62.22-.09.47.53.25.92.26,1.4.21.48-.05.81-.18,1.34-.15.54.04.46.05.74.17.27.12.12.24,1.16.25,1.04,0,2.37-.02,3.7.1,1.32.11,2.72.05,3.59.02.87-.03,1.68-.11,2.28-.15.6-.04.68.04,1.89-.08,1.22-.11,2.87-.3,3.46-.31.59,0,.68.04.94.12.26.08.89.33,1.65.51.76.18.92.28,1.36.44.44.15.83.13,1.16.27.34.14.3.16.39.27.09.11.11.21.36.29.25.08.25.12.21.17-.04.05-.19.41-.25.77-.06.36.42.57.06.87-.36.3-1.12,1.11-1.12,1.11l.96.25s-.11.14-.73.3c-.62.16-3.65.76-6.43,2.08-2.78,1.32-2.27,2.4-1.96,3.05.3.65,1.63.93,1.58,1.05-.05.11-.13.2-.11.4.01.2.5.35.92.53.42.18,1,.53.91.91-.08.38-.07.5-.38.58-.31.09-.86.45-.86.45Z"/>
              <path class="cls-16" d="M85.19,197.13c-.67,0-1.33-.17-1.93-.52l-66.64-39.11c-.87-.51-1.51-1.35-1.76-2.33-.25-.98-.1-2.02.41-2.89L81.8,40.13c.69-1.16,1.93-1.86,3.27-1.86h0c1.34,0,2.59.71,3.27,1.86l66.47,112.15c.51.87.66,1.91.41,2.89s-.88,1.82-1.75,2.33l-66.35,39.11c-.6.35-1.26.53-1.93.53ZM23.77,152.87l61.42,36.04,61.14-36.03-61.25-103.35-61.3,103.35Z"/>
              <path class="cls-25" d="M60.79,151.31c-.39.48.22,2.14.35,2.76s.39,4.55.48,6.13c.09,1.58.22,3.68-.04,5.34-.26,1.66-.82,2.45-.34,2.82.48.37,1.35.62,1.39.87.04.25-.17,1.78-.17,1.78,0,0,1.4,1.36,3.24,1.71,1.84.35,1.97-.31,1.93-.79-.04-.48-1.62-3.41-2.14-4.11-.53-.7-1.49-2.84-1.58-3.59-.09-.74.26-1.23.48-2.23.22-1.01.31-4.2.35-4.86.04-.66.53-1.53.88-2.54.35-1.01.35-2.19,1.84-3.94,1.49-1.75,2.63-4.46,3.24-5.3.61-.83.66-1.31.66-1.31,0,0,.91.24,1.96.02,1.05-.22,1.11,1.44.8,2.49-.31,1.05-1.73,3.34-2.78,4.52-1.05,1.18-1.49,2.98-.74,3.46.74.48,3.9,3.5,4.16,4.68.26,1.18-.7,3.15-.18,3.63.53.48,3.81,2.45,4.11.96.31-1.49.04-2.67-.57-3.94-.61-1.27-2.54-4.11-2.8-4.95-.26-.83-1.14-2.36.18-3.68,0,0,.48-1.75,1.05-2.23.57-.48,5.75-2.22,5.97-2.96.22-.74,1.05-3.19,1.14-3.46.09-.26,1.27-1.14,1.27-1.14,0,0,4.2-1.84,5.43-2.58s1.58-1.05,2.01-.96c.44.09.74,2.8,1.14,3.59.39.79.74,2.06,1.31,2.28.57.22,1.27.39,1.4,1.27.13.88,0,2.28,0,3.46s0,2.23.13,2.98c.13.74.18,1.93,0,3.11-.18,1.18-.04,2.76-.04,3.76s.22,1.93,1.01,2.32.31.22.83.61c.53.39,1.53.09,1.58,1.01s0,2.14-.04,2.41c-.04.26,3.33,1.71,5.6,1.44.44-.92-.35-2.45-.88-3.15-.53-.7-.89-.89-1.56-1.82-.67-.93-1.41-1.11-2.33-2.55-.92-1.44-1.53-1.71-1.4-3.06.13-1.36.13-4.03.18-4.38.04-.35,1.2-4.63,1.21-5.25.01-.62-.03-1.89.54-3.02s1.36-3.11,1.53-4.33c.18-1.23.09-2.06.48-1.75.39.31,1.14,1.71,1.27,2.63.13.92.26,1.75-.18,2.67s-.7,1.01-.7,1.58-.7.48-.53,1.36c.17.88.83.92-.31.92s-3.63-.39-2.71,5.21c.39,1.14,1.97,1.62,3.19.04,1.23-1.58,1.44-2.41,2.01-3.19.57-.79.99-1.63,1.57-2.37.58-.74.27-1.53.27-2.66s0-2.84.35-4.03c.35-1.18.53-3.33-.26-4.6-.79-1.27-.92-2.01-1.75-2.19-.83-.18-.92-.26-1.05-.31-.13-.04.35-2.14.61-3.19.26-1.05.61-3.46.13-4.81s-1.18-2.63-1.09-3.5c.09-.88.57-2.01.48-2.8-.09-.79.61-3.11.61-3.11,0,0-.57,2.63,0,3.24.57.61,1.13,1.14,1.31,2.17.18,1.03.31,2.69.97,3.31.66.61,2.49,1.09,3.11.7s.92-1.84,1.58-3.06c.66-1.23.86-.3.74-1.38-.12-1.08-.78-2.83-.56-4.14.22-1.31-.13-1.53.26-2.1.39-.57.61-1.01.7-1.31.09-.31.88-.35.7-1.14-.18-.79-.74-1.93-.83-2.54-.09-.61.13-.74.13-.74,0,0-.56-1.04-.37-1.31s1.81-.66,2.42-1.36c.61-.7.76-2.42.76-2.42,0,0-.71,0-1.46.31-.74.31-1.75.96-2.23.83-.48-.13-.7-.18-1.09-.22-.39-.04-1.75.26-2.32-.04-.57-.31-.79-.04-1.44-.7-.66-.66-1.36-.83-1.27-.31.09.53-.09.44-.09.44,0,0-1.09-.79-3.81.88-2.71,1.66-5.16,3.59-5.65,4.77-.48,1.18-.88,1.53-.88,1.53,0,0,.22-1.44-.92-2.14-1.14-.7-1.23-.92-1.71-1.93s-.7-1.58-.7-1.58c0,0,1.14.09.61-1.35-.53-1.44-.72-.87-.53-1.09s0-.7,0-.7c0,0-1.44-.22-2.01.31-1.18-.53-1.94-.26-2.67-.74-.74-.48-1.1-1.04-1.16-1.26-.06-.23-.15-.44.12-.62.26-.18.75-.32.88-.75.13-.42.36-1.52.27-1.99-.09-.47-.34-.83-.31-.92.02-.09.31-.42.27-.89-.04-.47-.38-1.22-.87-1.77-.02-.48-.07-.62-.18-.73s-.13-.04-.13-.04c0,0,.18-.87-2.23-.58-2.41.29-3.13,2.23-3.22,2.95-.09.71.34,1.92.65,2.48s.89,1.54.89,1.54l.07.18s-.65.07-.8.16c-.16.09.04.95.04.95,0,0-.89.01-1.32-.19s-1.97-.71-2.3-.89c-.34-.18-.6-.2-.67-.2s-.63.36-.71.36-1.07.09-1.54.04c-.47-.04-1.45.07-1.85,0-.4-.07-1.16-.04-1.7-.45-.54-.4-1.81-.89-2.97-1.79-1.16-.89-2.17-1.76-2.41-1.83-.25-.07-.4.11-.74-.07-.34-.18-1.18-.85-1.5-1.16-.31-.31-.8-.6-.8-.6,0,0-1.07-.54-1.9-.69-.83-.16-1.47-.07-.74.42.74.49,1.36.76,1.5.89.13.13.13.16.07.18-.07.02-.71.42-.56,1.5.16,1.07.45,1.3.87,1.36.42.07.83-.22,1.21.16.38.38.31.38.4.89s-.16.85.65,1.36,1.88,1.07,2.79,2.08c.92,1.01,2.08,1.45,2.79,1.76.71.31,1.43.45,1.94.58.51.13.49.45,1.56.65,1.07.2,2.57.36,3.04.63.47.27.49.45.6.85.11.4.36,1.5.76,2.46.4.96.42,1.36.6,2.08s.51.81.63,1.44c.11.63.07.68.02,1.08-.04.4-.13.74-.02,1.12.11.38.07.51-.02.67-.09.16-.58,1.25-1.01,2.41-.42,1.16-.27,2.08-.87,2.9-.6.83-2.06,3.15-2.06,3.15l.48,1.29s-.24.41-.88.63-3.66.78-7.24,3.84c-3.57,3.06-4.31,6.86-4.76,9.14-.45,2.28.29,3.84.13,4.2-.16.36-.31.6-.51,1.27-.2.67.02,1.38.16,2.19.13.8.22,2.21-.25,3.44-.47,1.23-.58,1.61-.92,1.74-.34.13-1.15,1.08-1.15,1.08Z"/>
              <polygon class="cls-4" points="85.06 44.32 85.15 192.05 20.16 153.65 85.06 44.32"/>
              <polygon class="cls-17" points="85.07 44.31 85.15 192.1 149.92 153.73 85.07 44.31"/>
            </g>
            <polygon class="cls-3" points="85.03 0 84.63 .25 84.63 35.84 84.8 35.56 91.95 47.26 91.95 20.57 102.47 25.44 102.47 11.28 85.03 0"/>
            <path class="cls-3" d="M103.88,11.68l9.52,4.96v21.41l6.46,2.97v-21.01l8.77,4.57v51.45h-8.77v-25.46l-6.46-2.8v28.22l-9.52-13.13V11.68Z"/>
            <path class="cls-12" d="M36.1,245.02c-7.23-4.14-13.78-13.04-24.84-11.74-.11,1.19-2.04,1.07-2.43,2.05.61,1.38,2.37,1.68,3.31,1.68-1.16,2.71-2.99,5.01-6.71,4.68-10.43-3.02-4.82-19.11,8.02-17.05,3.81.77,7,2.39,9.17,5.43-.18.03-.36.06-.54.09-.31-.76-1.29-1.67-1.83-1.09.39.67,1.23.71,1.83,1.09.05.27.53.26.54-.09.18-.27.71-.28.72-.67-1.34-1.55-2.33-3.59-3.16-5.85,4.51-3.57,10.59-1.26,13.95.79,2.98,25.36,23.32,29.42,42.9,32.86-13.2,1-25.29-2.26-34.54-8.51,1.37-.4,2.79,1.79,4.7,1.73.52.6,1.12,1.08,2.1,1.04.16.32.44.49.89.41.14.3,1.04,1.13,1.16.36-.24-.33-.66-.41-1.16-.36-.17-.32-.44-.49-.89-.41-.61-.48-1.21-.96-2.1-1.04-2.93-1.65-5.69-3.55-8.36-5.56-.15-.79-.78-.9-1.29-1.17-1.67-2.46-4.97-4.25-5.57-7.11,3.89,3.95,7.21,8.69,12.28,11,.08.32.18.62.63.45.04.16.09.31.31.22.12.23.92,1.06.9.41-.16-.32-.44-.49-.9-.41-.04-.16-.09-.31-.31-.22-.11-.29-.37-.37-.63-.45-.46-.79-1.35-.98-1.7-1.94.35-.04.43.29.85.14.1.29.37.37.63.45.04.16.09.31.31.23.03.33.42.1,0,0-.04-.16-.09-.31-.31-.23-.08-.32-.18-.63-.63-.45-.06-.47-.32-.66-.67-.72-.04-.16-.09-.31-.31-.23-.15-.79-.78-.9-1.3-1.17-.27-.64-1.28-1.94-1.61-1.4.54.45.85,1.24,1.61,1.4.15.79.78.9,1.3,1.17.04.16.09.31.31.23.04.27-.17.36-.18.58-7.35-3.78-10.52-13.33-16.82-18.56,5.21,2.79,7.86,9.1,12.09,13.24.03.33.42.1,0,0-3.96-5.95-7.35-12.67-13.56-15.5-.92.06-2.28.74-2.29-.46,5.88-1.1,8.81,4.71,12.11,8.27.14.91.6,1.36,1.11,1.75-.14-.91-.6-1.36-1.11-1.75-2.33-4.79-5.25-8.77-10.63-9.34.47.13,1.09-.72.45-.63-1.22.72-1.83.69-2.75,1.83-.03-.33-.42-.1,0,0,1.04,1.84,1.58,4.09,3.83,4.91-.63.26-1.35.45-1.17,1.3.21,1.04,1.96,1.66,1.51,2.52-.03-.33-.42-.1,0,0,.64.1,1.46.2,2.1,1.04-1.42.35,1.68,1.23.62,2.11-.05-.6-.36-.82-.94-.68.21.36.53.59.94.68,3.24,2.32,6.13,5.13,9.47,7.31.15.79.78.9,1.29,1.17-.26.96-.75-.45-1.39-.05-.08-.32-.18-.62-.63-.45.15-.59-.89-1.1-.9-.41.13.37.64.21.9.41.11.29.37.37.63.45.68.83-.75.56-1.35.22ZM19.67,228.88c-.67-2.47-5.1-2.83-7.2-3.53-1.19.33-2.04.19-3.01.21-6.5.51-12.24,8.47-6.57,14.05.18-.03.36-.06.54-.09.04.16.09.31.31.23.04.16.09.31.31.23.02.33.42.1,0,0-.04-.16-.09-.31-.31-.23-.04-.16-.09-.31-.31-.23-.04-.27-.09-.54-.13-.81.81-.02,1.02.78,1.56,1.13.56-.69-1.06-1.16-.93-2.34,1.71-.06,1.67,2.3,3.62,1.9-2.69-1.15-5.77-6.51-2.83-8.94-.82,1.8-.23,7.19,3.15,7.51-2.77-1.76-4.19-7.24-.63-9.02.17,1.79-1.86,1.99-.96,4.3-.49,0-.24,1.59.44,1.03-.06-.47-.2-.83-.44-1.03.09-5.79,9.55-8.41,13.39-4.38ZM6.5,234.6c.06,1.24,1.66,3.2,3.53,3.02-1.14-1.06-2.51-1.8-3.53-3.02ZM8.1,239.32c-.13-.09.2.15,0,0h0ZM8.19,238.2c.03.83.97.42,1.48.59-.27-.5-.83-.6-1.48-.59ZM9.22,239.42c-.13-.09.2.15,0,0h0ZM9.07,233.36c6.33-2.92,11.48.83,16.14,2.37.83,1.38,2.42,1.7,3.71,2.44.04.16.09.31.31.23.44,1.04,1.42,1.33,2.23,1.85.11.29.37.37.63.45.04.16.09.31.31.23.04.16.09.31.31.22.04.16.09.31.31.23,0,.87.84.59,1.03,1.22.66-.52-.65-1.05-1.03-1.22-.04-.16-.09-.31-.31-.23-.04-.16-.09-.31-.31-.22-.04-.16-.09-.31-.31-.23-.08-.32-.18-.62-.63-.45-.31-1.11-1.47-1.03-1.96-1.89-.09.01-.18.03-.27.04-.04-.16-.09-.31-.31-.23-.9-1.28-2.26-1.93-3.71-2.44-3.98-2.78-11.19-6.28-16.18-2.63.01.09.03.18.04.27-.33.03-.1.42,0,0ZM9.98,239.02c.31-.17.5-.43.41-.89-.31.17-.5.43-.41.89ZM11.1,230.55c3.72-.21,6.66.66,9.64,1.48-2.32-1.61-6.17-2.53-9.64-1.48ZM13.84,228.72c-1.01.48,1.11.14,0,0h0ZM14.65,228.59c-.81.85,1.49.43,0,0h0ZM15.55,229c.29.36.77.47,1.43.32-.29-.36-.77-.47-1.43-.32ZM17.56,229.5c.14.46.56.54,1.16.36-.14-.46-.56-.54-1.16-.36-.03-.33-.42-.1,0,0ZM19.31,230.05c.03.33.42.1,0,0-.03-.33-.42-.1,0,0ZM19.85,229.96c.21.7.85.79,1.52.86.25,1.05,1.18-.24,0,0-.42-.41-.73-.97-1.52-.86ZM21,231.98c.81.74,1.59,1.54,3,1.45-.78-.78-1.84-1.19-3-1.45ZM24.63,233.88c.65.54,1.13,1.3,2.15,1.31.03.33.42.1,0,0-.64-.54-1.13-1.29-2.15-1.31-.03-.33-.42-.1,0,0ZM25.04,222.76c4.22.97,6.85,4.14,9.02,7.94.7-1.86-1.36-2.73-1.77-4.14.23-1.13,1.31.97,1.39.05-.15-1.22-.27-2.49-1.47-2.25.52,1.01-.68.78-.59,1.48-1.3-2.07-3.77-4.19-6.58-3.08-.18-.8-1.08.44,0,0ZM35.53,243.18c-.26.05-.16.36-.18.58.26-.05.16-.36.18-.58ZM35.52,234.61c-.26.05-.16.36-.18.58.26-.05.16-.36.18-.58ZM45.29,247.13c.03.33.42.1,0,0-.03-.33-.42-.1,0,0ZM46.67,248.84c-.13-.09.2.15,0,0h0ZM50.56,250.7c.18.8,1.08-.44,0,0-.03-.33-.42-.1,0,0ZM51.99,252.68c.1.31.47.22.85.14.32.43.65.85,1.48.59.02.33.42.1,0,0-.27-.5-.84-.6-1.48-.59-.1-.31-.47-.22-.85-.14-.02-.33-.42-.1,0,0ZM53.52,251.88c-.13-.09.21.15,0,0h0ZM55.17,253.54c-.13-.09.21.15,0,0h0ZM55.48,253.77c.17.31.43.5.89.41-.17-.31-.43-.5-.89-.41ZM56.65,254.14c.26.63,1.11.43,1.75.55.09.2.28.28.58.18.11.39.69.14,1.12.09.03.33.42.1,0,0-.12-.39-.69-.14-1.12-.09-.09-.2-.28-.28-.58-.18-.26-.63-1.11-.43-1.75-.55ZM60.68,255.14c.71.56,1.88.47,2.87.64-.61-.69-1.79-.6-2.87-.64ZM64.08,255.7c.29.36.77.47,1.43.32.19.8,1.08-.44,0,0-.29-.36-.77-.47-1.43-.32ZM66.64,256.11c-.76.78,2.07-.38,0,0h0ZM68.03,256.16c-1.01.48,1.11.14,0,0h0ZM69.15,256.26c-.13-.09.2.15,0,0h0ZM70,256.4c-1.01.48,1.11.14,0,0h0Z"/>
            <path class="cls-12" d="M1.83,236.47c.06.36.12.72.17,1.08.85.14.38-.68.36-1.16-.18.03-.36.06-.54.09Z"/>
            <path class="cls-12" d="M2.36,238.04c.17.31.43.5.9.41.08-.97-.56-.86-.9-.41Z"/>
            <path class="cls-12" d="M2.69,234.94c.68-.14.39-.99.28-1.7-1.01-.1-.2,1.12-.28,1.7Z"/>
            <path class="cls-12" d="M3.35,237.32c1.26-.41.17-1.04.19-2.24-1.44.26-.19,1.23-.19,2.24Z"/>
            <path class="cls-12" d="M2.52,232.21c.37,1.05,1.27-.19.45-.63-.28.11-.1.57-.45.63Z"/>
            <path class="cls-12" d="M7.25,228.96c.88-.02,2-1.07,1.44-1.34-1.02.05-1.55.47-1.44,1.34Z"/>
            <path class="cls-12" d="M9.5,227.49c.8.1.64-.49,1.3-.49-.15-.8-1.72-.46-1.3.49Z"/>
            <path class="cls-12" d="M23.72,226.57c.27.5.83.6,1.48.59.07-1.06-1.1-1.12-1.48-.59Z"/>
            <path class="cls-12" d="M26.57,230.53c.59,1.16,1.78,1.48,2.36,2.66.93-.91-1.21-2.52-2.36-2.66Z"/>
            <path class="cls-12" d="M27.45,234.26c1.56,1.07,1.19,3.12,3.8,2.98.35-.46.01-1.42-.08-2.2-1.38-.07-2.14-.99-3.72-.78Z"/>
            <path class="cls-12" d="M31.34,237.78c.05.6.36.82.94.68-.33-.2-.24-.98-.94-.68Z"/>
            <path class="cls-12" d="M37.89,245.84c-.03-.33-.42-.1,0,0h0Z"/>
            <path class="cls-12" d="M37.89,245.84c.92.92,2.03,1.58,3.13,2.26.17-1.13-1.87-2.02-3.13-2.26Z"/>
            <path class="cls-12" d="M41.87,248.23c-.13-.09.21.15,0,0h0Z"/>
            <path class="cls-12" d="M47.91,243.84c.41.35-2.98-4.9-.96-9.05,2.02-4.15.75-7.24-2.13-7.88-2.88-.64-7.99,7.56,3.09,16.94Z"/>
            <path class="cls-10" d="M51.51,246.61c.18.32-.79-3.78,1.43-5.95,2.22-2.18,2.1-4.42.43-5.47-1.68-1.05-6.77,2.99-1.86,11.43Z"/>
            <path class="cls-10" d="M34.74,249.18c.42.55-6.1-4.13-11.56-1.79-5.46,2.34-9.34.51-9.98-3.23-.64-3.73,10.21-9.78,21.55,5.02Z"/>
            <path class="cls-12" d="M58.52,245.59c0,.97-.79,1.76-1.76,1.76s-1.76-.79-1.76-1.76.79-1.76,1.76-1.76,1.76.79,1.76,1.76Z"/>
            <path class="cls-29" d="M125.13,252.7c1.97.77,4.91.84,6.95.52,2.13-.33,4.02-1.2,6-1.98,1.62-.63,2.36,1.81,1.08,2.67-2.08,1.4-4.91,1.84-7.37,1.55-1.22-.14-2.47-.39-3.62-.79-1.28-.44-1.97-1.15-3.08-1.86-.05-.03-.02-.13.04-.1h0Z"/>
            <path class="cls-11" d="M117.93,255c1.08.8,2.87,1.33,4.18,1.47,1.36.15,2.67-.08,4.01-.23,1.1-.12,1.15,1.5.22,1.82-1.51.52-3.32.32-4.78-.27-.72-.29-1.45-.64-2.1-1.08-.71-.48-1.02-1.03-1.59-1.65-.03-.03,0-.08.04-.06h0Z"/>
            <path class="cls-12" d="M132.2,244.8c.26-.08.52-.16.63-.45.25-.2.76-.04.9-.41,0-.69-1.04-.18-.9.41-.44-.17-.54.13-.63.45-.64-.4-1.13,1.01-1.39.05.52-.27,1.15-.39,1.29-1.17,3.34-2.18,6.23-4.99,9.47-7.31.41-.09.72-.31.94-.68-.58-.14-.89.08-.94.68-1.06-.89,2.04-1.76.62-2.11.65-.84,1.47-.94,2.1-1.04.42-.1.03-.33,0,0-.45-.86,1.31-1.47,1.51-2.52.18-.84-.54-1.04-1.17-1.3,2.25-.82,2.8-3.06,3.83-4.91.42-.1.03-.33,0,0-.92-1.13-1.53-1.11-2.75-1.83-.63-.1-.02.75.45.63-5.38.57-8.3,4.55-10.63,9.34-.51.39-.97.85-1.11,1.75.51-.39.97-.85,1.11-1.75,3.31-3.56,6.24-9.37,12.11-8.27,0,1.2-1.37.52-2.29.46-6.21,2.82-9.61,9.55-13.56,15.5-.42.1-.03.33,0,0,4.23-4.14,6.89-10.46,12.09-13.24-6.3,5.23-9.47,14.78-16.82,18.56-.02-.23-.23-.31-.18-.58.22.09.27-.06.31-.23.52-.27,1.15-.39,1.3-1.17.76-.15,1.06-.94,1.61-1.4-.33-.54-1.34.76-1.61,1.4-.52.27-1.15.39-1.3,1.17-.22-.09-.27.06-.31.23-.35.07-.61.26-.67.72-.44-.17-.54.13-.63.45-.22-.09-.27.06-.31.23-.42.1-.03.33,0,0,.22.09.27-.06.31-.23.26-.08.52-.16.63-.45.42.15.5-.18.85-.14-.34.95-1.23,1.15-1.7,1.94-.26.08-.52.16-.63.45-.22-.09-.27.06-.31.22-.46-.08-.73.09-.9.41-.02.65.78-.18.9-.41.22.09.27-.06.31-.22.44.17.54-.13.63-.45,5.07-2.31,8.39-7.06,12.28-11-.6,2.86-3.9,4.65-5.57,7.11-.52.27-1.15.39-1.29,1.17-2.67,2.01-5.43,3.91-8.36,5.56-.89.09-1.5.56-2.1,1.04-.46-.09-.73.09-.89.41-.51-.04-.93.03-1.16.36.13.77,1.03-.07,1.16-.36.46.09.73-.09.89-.41.98.04,1.59-.44,2.1-1.04,1.91.06,3.33-2.13,4.7-1.73-9.26,6.25-21.34,9.51-34.54,8.51,19.58-3.44,39.92-7.5,42.9-32.86,3.35-2.05,9.44-4.36,13.95-.79-.83,2.26-1.82,4.29-3.16,5.85,0,.39.54.4.72.67.01.35.49.36.54.09.6-.37,1.45-.41,1.83-1.09-.54-.59-1.53.32-1.83,1.09-.18-.03-.36-.06-.54-.09,2.17-3.04,5.36-4.66,9.17-5.43,12.84-2.06,18.45,14.03,8.02,17.05-3.72.34-5.54-1.96-6.71-4.68.94,0,2.7-.29,3.31-1.68-.4-.98-2.32-.86-2.43-2.05-11.06-1.3-17.61,7.6-24.84,11.74-.6.34-2.03.61-1.35-.22ZM163.37,233.26c-.25.21-.39.56-.44,1.03.68.55.93-1.04.44-1.03.9-2.31-1.14-2.51-.96-4.3,3.56,1.78,2.14,7.26-.63,9.02,3.38-.32,3.97-5.7,3.15-7.51,2.94,2.42-.14,7.79-2.83,8.94,1.95.39,1.92-1.96,3.62-1.9.12,1.18-1.49,1.65-.93,2.34.54-.35.76-1.15,1.56-1.13-.04.27-.09.54-.13.81-.22-.09-.27.06-.31.23-.22-.09-.27.06-.31.23-.42.1-.02.33,0,0,.22.09.27-.06.31-.23.22.09.27-.06.31-.23.18.03.36.06.54.09,5.67-5.59-.07-13.54-6.57-14.05-.97-.02-1.82.12-3.01-.21-2.1.7-6.53,1.06-7.2,3.53,3.84-4.04,13.3-1.42,13.39,4.38ZM159.62,237.63c1.87.17,3.47-1.78,3.53-3.02-1.02,1.22-2.39,1.96-3.53,3.02ZM161.56,239.32c-.2.15.13-.09,0,0h0ZM159.98,238.79c.51-.17,1.44.24,1.48-.59-.64-.01-1.2.09-1.48.59ZM160.43,239.42c-.2.15.13-.09,0,0h0ZM160.58,233.36c.01-.09.03-.18.04-.27-4.99-3.65-12.2-.14-16.18,2.63-1.45.51-2.81,1.16-3.71,2.44-.22-.09-.27.06-.31.23-.09-.01-.18-.03-.27-.04-.49.86-1.66.78-1.96,1.89-.44-.17-.54.13-.63.45-.22-.09-.27.06-.31.23-.22-.09-.27.06-.31.22-.22-.09-.27.06-.31.23-.38.17-1.69.7-1.03,1.22.19-.62,1.02-.35,1.03-1.22.22.09.27-.06.31-.23.22.09.27-.06.31-.22.22.09.27-.06.31-.23.26-.08.52-.16.63-.45.81-.52,1.8-.81,2.23-1.85.22.09.27-.06.31-.23,1.29-.74,2.88-1.06,3.71-2.44,4.65-1.53,9.8-5.29,16.14-2.37.1.42.33.03,0,0ZM159.26,238.12c-.09.46.1.72.41.89.09-.46-.1-.72-.41-.89ZM148.92,232.03c2.98-.82,5.92-1.69,9.64-1.48-3.47-1.05-7.32-.13-9.64,1.48ZM155.81,228.72c-1.11.14,1.01.48,0,0h0ZM155,228.59c-1.49.43.81.85,0,0h0ZM152.67,229.32c.66.15,1.14.04,1.43-.32-.66-.15-1.14-.04-1.43.32ZM152.09,229.5c-.6-.17-1.02-.1-1.16.36.6.17,1.02.1,1.16-.36.42-.1.03-.33,0,0ZM150.34,230.05c-.42.1-.03.33,0,0,.42-.1.03-.33,0,0ZM148.28,230.82c-1.18-.24-.25,1.05,0,0,.67-.07,1.31-.16,1.52-.86-.79-.11-1.1.45-1.52.86ZM145.65,233.43c1.41.09,2.19-.71,3-1.45-1.16.26-2.22.67-3,1.45ZM145.02,233.88c-1.02.02-1.5.78-2.15,1.31-.42.1-.03.33,0,0,1.02-.02,1.5-.78,2.15-1.31.42-.1.03-.33,0,0ZM144.61,222.76c-2.81-1.11-5.28,1.01-6.58,3.08.09-.7-1.11-.47-.59-1.48-1.2-.24-1.32,1.03-1.47,2.25.08.92,1.16-1.18,1.39-.05-.42,1.41-2.48,2.27-1.77,4.14,2.17-3.8,4.8-6.97,9.02-7.94,1.08.44.18-.8,0,0ZM134.31,243.76c-.03-.22.08-.53-.18-.58.03.22-.08.53.18.58ZM134.31,235.19c-.03-.22.08-.53-.18-.58.03.22-.08.53.18.58ZM124.36,247.13c-.42.1-.03.33,0,0,.42-.1.03-.33,0,0ZM122.98,248.84c-.2.15.13-.09,0,0h0ZM119.09,250.7c-1.08-.44-.18.8,0,0,.42-.1.03-.33,0,0ZM117.66,252.68c-.38-.08-.76-.17-.85.14-.64-.01-1.21.09-1.48.59-.42.1-.02.33,0,0,.83.26,1.15-.16,1.48-.59.38.08.76.17.85-.14.42-.1.02-.33,0,0ZM116.13,251.88c-.21.15.13-.09,0,0h0ZM114.48,253.54c-.21.15.13-.09,0,0h0ZM113.27,254.18c.46.09.72-.1.89-.41-.46-.09-.72.1-.89.41ZM111.26,254.68c-.31-.09-.49-.02-.58.18-.43-.05-1.01-.3-1.12.09-.42.1-.03.33,0,0,.43.05,1.01.3,1.12-.09.31.09.49.02.58-.18.63-.11,1.48.08,1.75-.55-.63.11-1.49-.08-1.75.55ZM106.11,255.78c.99-.17,2.16-.08,2.87-.64-1.08.04-2.25-.05-2.87.64ZM104.13,256.02c-1.08-.44-.19.8,0,0,.66.15,1.14.04,1.43-.32-.66-.15-1.14-.04-1.43.32ZM103.01,256.11c-2.07-.38.76.78,0,0h0ZM101.62,256.16c-1.11.14,1.01.48,0,0h0ZM100.5,256.26c-.2.15.13-.09,0,0h0ZM99.65,256.4c-1.11.14,1.01.48,0,0h0Z"/>
            <path class="cls-12" d="M167.82,236.47c-.06.36-.12.72-.17,1.08-.85.14-.38-.68-.36-1.16.18.03.36.06.54.09Z"/>
            <path class="cls-12" d="M167.29,238.04c-.17.31-.43.5-.9.41-.08-.97.56-.86.9-.41Z"/>
            <path class="cls-12" d="M166.96,234.94c-.68-.14-.39-.99-.28-1.7,1.01-.1.2,1.12.28,1.7Z"/>
            <path class="cls-12" d="M166.3,237.32c-1.26-.41-.17-1.04-.19-2.24,1.44.26.19,1.23.19,2.24Z"/>
            <path class="cls-12" d="M167.13,232.21c-.37,1.05-1.27-.19-.45-.63.28.11.1.57.45.63Z"/>
            <path class="cls-12" d="M162.4,228.96c-.88-.02-2-1.07-1.44-1.34,1.02.05,1.55.47,1.44,1.34Z"/>
            <path class="cls-12" d="M160.15,227.49c-.8.1-.64-.49-1.3-.49.15-.8,1.72-.46,1.3.49Z"/>
            <path class="cls-12" d="M145.93,226.57c-.27.5-.83.6-1.48.59-.07-1.06,1.1-1.12,1.48-.59Z"/>
            <path class="cls-12" d="M143.08,230.53c-.59,1.16-1.78,1.48-2.36,2.66-.93-.91,1.21-2.52,2.36-2.66Z"/>
            <path class="cls-12" d="M142.2,234.26c-1.56,1.07-1.19,3.12-3.8,2.98-.35-.46-.01-1.42.08-2.2,1.38-.07,2.14-.99,3.72-.78Z"/>
            <path class="cls-12" d="M138.31,237.78c-.05.6-.36.82-.94.68.33-.2.24-.98.94-.68Z"/>
            <path class="cls-12" d="M131.76,245.84c.03-.33.42-.1,0,0h0Z"/>
            <path class="cls-12" d="M131.76,245.84c-.92.92-2.03,1.58-3.13,2.26-.17-1.13,1.87-2.02,3.13-2.26Z"/>
            <path class="cls-12" d="M127.78,248.23c.13-.09-.21.15,0,0h0Z"/>
            <path class="cls-12" d="M121.74,243.84c-.41.35,2.98-4.9.96-9.05-2.02-4.15-.75-7.24,2.13-7.88s7.99,7.56-3.09,16.94Z"/>
            <path class="cls-10" d="M118.14,246.61c-.18.32.79-3.78-1.43-5.95s-2.1-4.42-.43-5.47c1.68-1.05,6.77,2.99,1.86,11.43Z"/>
            <path class="cls-10" d="M134.91,249.18c-.42.55,6.1-4.13,11.56-1.79,5.46,2.34,9.34.51,9.98-3.23.64-3.73-10.21-9.78-21.55,5.02Z"/>
            <path class="cls-12" d="M111.13,245.59c0,.97.79,1.76,1.76,1.76s1.76-.79,1.76-1.76-.79-1.76-1.76-1.76-1.76.79-1.76,1.76Z"/>
          </g>
        </g>
      </g>
    </g>
  </g>
</svg>